<svg width="29" height="29" viewBox="0 0 29 29" fill="none" xmlns="http://www.w3.org/2000/svg">
<path d="M18.8963 3.86633L19.1443 4.52891L19.3923 3.86633C19.4959 3.58963 19.6576 3.33837 19.8666 3.12951C20.0756 2.92064 20.3269 2.75904 20.6037 2.6556L21.2626 2.40758L20.6037 2.15956C20.3271 2.05584 20.076 1.89406 19.8672 1.6851C19.6585 1.47615 19.497 1.22488 19.3935 0.948225L19.1455 0.285645L18.8963 0.948225C18.7928 1.22488 18.6313 1.47615 18.4225 1.6851C18.2138 1.89406 17.9627 2.05584 17.6861 2.15956L17.0236 2.40758L17.6861 2.6556C17.9627 2.75918 18.2138 2.92085 18.4225 3.12971C18.6313 3.33857 18.7928 3.58975 18.8963 3.86633Z" fill="white"/>
<path d="M23.4956 6.30291L23.6831 6.80494L23.8688 6.30291C23.9472 6.09302 24.0698 5.90242 24.2282 5.74398C24.3867 5.58554 24.5773 5.46296 24.7872 5.38453L25.2892 5.19641L24.7872 5.0083C24.5773 4.92987 24.3867 4.80729 24.2282 4.64885C24.0698 4.49041 23.9472 4.29981 23.8688 4.08992L23.6807 3.58789L23.4932 4.08992C23.4146 4.29971 23.2919 4.49023 23.1335 4.64864C22.9751 4.80706 22.7846 4.9297 22.5748 5.0083L22.0721 5.19641L22.5748 5.38453C22.785 5.46284 22.976 5.58535 23.1348 5.74378C23.2937 5.90222 23.4167 6.09288 23.4956 6.30291Z" fill="white"/>
<path d="M26.3021 3.51374L26.4896 4.01637L26.6777 3.51374C26.7563 3.30395 26.879 3.11343 27.0374 2.95501C27.1958 2.7966 27.3863 2.67396 27.5961 2.59535L28.0982 2.40784L27.5961 2.21973C27.3862 2.1413 27.1956 2.01872 27.0372 1.86028C26.8788 1.70184 26.7562 1.51123 26.6777 1.30134L26.4896 0.799316L26.3021 1.30134C26.2235 1.51114 26.1009 1.70165 25.9425 1.86007C25.784 2.01849 25.5935 2.14112 25.3837 2.21973L24.8811 2.40784L25.3837 2.59535C25.5934 2.67416 25.7838 2.79687 25.9422 2.95526C26.1006 3.11365 26.2233 3.30406 26.3021 3.51374Z" fill="white"/>
<path d="M23.7975 26.2873V27.5352C23.7975 27.6152 23.8133 27.6944 23.844 27.7683C23.8747 27.8422 23.9197 27.9093 23.9765 27.9658C24.0332 28.0222 24.1005 28.0669 24.1746 28.0973C24.2486 28.1276 24.3279 28.143 24.4079 28.1426H26.7443C26.9055 28.1426 27.06 28.0786 27.1739 27.9647C27.2878 27.8508 27.3518 27.6963 27.3518 27.5352V25.1299C26.9662 25.5174 26.5041 25.8204 25.995 26.0196C25.486 26.2189 24.941 26.31 24.3948 26.2873H23.7975Z" fill="white"/>
<path d="M1.18286 25.0947V27.5354C1.18286 27.6965 1.24686 27.851 1.36078 27.9649C1.47471 28.0788 1.62922 28.1428 1.79033 28.1428H4.12673C4.28784 28.1428 4.44235 28.0788 4.55627 27.9649C4.6702 27.851 4.7342 27.6965 4.7342 27.5354V26.2875H4.17406C3.61949 26.3114 3.06615 26.2175 2.55055 26.0119C2.03495 25.8063 1.5688 25.4937 1.18286 25.0947Z" fill="white"/>
<path d="M1.2002 22.6613C1.2002 24.383 2.39835 25.3865 4.17402 25.3865H24.3935C26.1668 25.3865 27.3673 24.383 27.3673 22.6613V22.1641H1.2002V22.6613Z" fill="white"/>
<path d="M27.6428 11.5784L26.1451 11.3184C26.0255 11.2975 25.9023 11.3176 25.7955 11.3755C25.6888 11.4333 25.6046 11.5255 25.5568 11.6371L25.0907 12.6909L24.9014 12.4021L23.5882 9.30191C23.3764 8.79898 23.0401 8.35822 22.6109 8.02117C22.1817 7.68411 21.6738 7.46183 21.135 7.37528C18.8676 7.03102 16.5768 6.86377 14.2833 6.87505C11.9901 6.86433 9.69949 7.03218 7.43229 7.37707C6.89296 7.46321 6.38446 7.68529 5.95473 8.02237C5.52499 8.35945 5.18819 8.80042 4.97607 9.30371L3.66589 12.3991L3.47957 12.6837L3.01049 11.6341C2.96265 11.5225 2.87853 11.4303 2.77176 11.3725C2.66499 11.3146 2.54182 11.2945 2.4222 11.3154L0.923905 11.5784C0.785496 11.6008 0.659591 11.6717 0.56879 11.7786C0.47799 11.8854 0.428239 12.0211 0.428468 12.1613V12.4555C0.428496 12.5905 0.474672 12.7214 0.559336 12.8265C0.644001 12.9317 0.762067 13.0047 0.893951 13.0336L2.94519 13.5026L1.96271 15.0003C1.46549 15.7586 1.20063 16.6457 1.20068 17.5524V21.2667H27.3672V17.5524C27.3671 16.6456 27.102 15.7586 26.6046 15.0003L25.6185 13.4955L27.6733 13.0324C27.8052 13.0035 27.9233 12.9305 28.008 12.8253C28.0926 12.7202 28.1388 12.5893 28.1388 12.4543V12.1601C28.1387 12.02 28.0888 11.8845 27.9979 11.778C27.907 11.6714 27.7811 11.6006 27.6428 11.5784ZM5.80579 9.65477C5.95715 9.29129 6.19911 8.97265 6.50859 8.72923C6.81808 8.48582 7.18476 8.32576 7.57367 8.26431C9.79415 7.92729 12.0375 7.76325 14.2833 7.77366C16.5292 7.76325 18.7725 7.92729 20.993 8.26431C21.3816 8.32595 21.748 8.48603 22.0572 8.72931C22.3665 8.9726 22.6083 9.29099 22.7597 9.65417L23.7692 12.0349H4.79635L5.80579 9.65477ZM3.90013 18.3414C3.72401 18.3157 3.55967 18.2378 3.4284 18.1176C3.29712 17.9974 3.20496 17.8406 3.16386 17.6674C3.1097 17.4655 3.08846 17.2561 3.10096 17.0474C3.14948 16.5082 3.31902 16.2428 3.66169 16.2428C3.66169 16.2428 6.01128 16.389 6.32879 16.4867C6.6463 16.5843 7.86482 18.9009 7.86482 18.9009L3.90013 18.3414ZM18.9514 19.24L14.2546 19.5084L9.61533 19.2466L8.43215 16.7371C8.43215 16.7371 12.5999 17.1001 14.2827 17.1001C15.9656 17.1001 20.1345 16.7371 20.1345 16.7371L18.9514 19.24ZM25.4022 17.6698C25.3611 17.843 25.269 17.9998 25.1377 18.12C25.0064 18.2402 24.8421 18.3181 24.666 18.3438L20.7013 18.9033C20.7013 18.9033 21.9204 16.5867 22.2379 16.4891C22.5554 16.3914 24.9044 16.2452 24.9044 16.2452C25.2477 16.2452 25.4166 16.513 25.4651 17.0498C25.4776 17.2585 25.4564 17.4679 25.4022 17.6698Z" fill="white"/>
</svg>
