<svg width="20" height="20" viewBox="0 0 20 20" fill="none" xmlns="http://www.w3.org/2000/svg">
<path d="M10 0C4.48578 0 0 4.48578 0 10C0 15.5142 4.48578 20 10 20C15.5142 20 20 15.5142 20 10C20 4.48578 15.5142 0 10 0Z" fill="#48B0F7"/>
<path d="M15.0685 7.87988L9.65176 13.2964C9.48926 13.459 9.27594 13.5407 9.06262 13.5407C8.8493 13.5407 8.63599 13.459 8.47348 13.2964L5.7652 10.5882C5.43927 10.2624 5.43927 9.73566 5.7652 9.40988C6.09097 9.08395 6.61755 9.08395 6.94348 9.40988L9.06262 11.529L13.8902 6.7016C14.216 6.37567 14.7426 6.37567 15.0685 6.7016C15.3943 7.02737 15.3943 7.55396 15.0685 7.87988Z" fill="white"/>
</svg>
