<svg width="29" height="29" viewBox="0 0 29 29" fill="none" xmlns="http://www.w3.org/2000/svg">
<path d="M14.6429 0.428711C6.97362 0.428711 0.714355 6.68835 0.714355 14.3573C0.714355 22.0268 6.974 28.2859 14.6429 28.2859C22.3123 28.2859 28.5715 22.0262 28.5715 14.3573C28.5715 6.68797 22.3119 0.428711 14.6429 0.428711ZM14.6429 3.74763C19.9381 3.74763 24.3396 7.64698 25.127 12.725H22.2967C20.5022 12.725 18.7973 12.0049 17.6191 10.7494C16.0086 9.03303 13.2774 9.03249 11.6668 10.7493C10.4886 12.0049 8.78362 12.725 6.98907 12.725H4.15885C4.9463 7.64698 9.34773 3.74763 14.6429 3.74763ZM14.6429 17.6218C13.2929 17.6218 12.1945 16.5235 12.1945 15.1734C12.1945 13.8233 13.2929 12.725 14.6429 12.725C15.993 12.725 17.0913 13.8233 17.0913 15.1734C17.0913 16.5235 15.993 17.6218 14.6429 17.6218ZM4.76343 18.2256C5.69763 17.8591 6.37218 17.6218 7.29778 17.6218C10.2733 17.6218 12.5873 20.2733 12.1391 23.2525H12.1372C12.0706 23.7085 11.9396 24.1504 11.7506 24.5662C8.55364 23.6592 5.96646 21.2875 4.76343 18.2256ZM17.5359 24.566C17.3417 24.1392 17.2136 23.6974 17.1487 23.2525H17.1468C16.6245 19.781 19.8291 16.9165 23.1509 17.7607C23.5011 17.8498 23.9393 17.9969 24.5224 18.2256C23.3194 21.2872 20.7325 23.6589 17.5359 24.566Z" fill="white"/>
</svg>
