<svg width="28" height="28" viewBox="0 0 28 28" fill="none" xmlns="http://www.w3.org/2000/svg">
<path d="M18.0404 3.96533C14.8055 3.96533 12.1736 6.5269 12.1736 9.67551V9.68505C12.1736 9.94148 12.2946 10.1831 12.5 10.3367C12.7053 10.4904 12.9711 10.5381 13.2171 10.4658C13.6908 10.3266 14.2327 10.3757 14.6669 10.5974C15.3137 10.928 15.7181 11.618 15.6729 12.3144C15.628 13.0034 15.1454 13.6379 14.4719 13.8931C14.0517 14.0525 13.8402 14.5223 13.9993 14.9426C14.1227 15.2679 14.4321 15.4681 14.7606 15.4681C14.8564 15.4681 14.9539 15.451 15.0488 15.4151C16.3081 14.9379 17.2115 13.7344 17.2969 12.42C17.3838 11.0846 16.6243 9.76982 15.4072 9.14802C14.9439 8.9113 14.4287 8.78139 13.9082 8.76189C14.3401 6.94927 16.029 5.59294 18.0404 5.59294C20.3779 5.59294 22.2796 7.42442 22.2796 9.67551C22.2796 10.125 22.6441 10.4893 23.0934 10.4893C23.5429 10.4893 23.9074 10.125 23.9074 9.67551C23.9074 6.5269 21.2755 3.96533 18.0404 3.96533Z" fill="white"/>
<path d="M24.9875 2.88355C23.1531 1.11268 20.7096 0.128274 18.1071 0.111532C15.923 0.0979681 13.8539 0.762997 12.1172 2.03583C10.4326 3.27053 9.18028 5.02868 8.59091 6.98646C8.17426 8.37099 8.34528 9.88034 9.08554 11.3513C10.6475 14.4544 11.0887 17.3078 10.6082 21.2002C10.3491 23.3011 10.8462 25.0317 12.0462 26.2053C13.1516 27.2864 14.6518 27.8891 16.2099 27.8891C16.3322 27.8891 16.4549 27.8855 16.5776 27.8779C18.0283 27.7895 19.3888 27.1779 20.4084 26.1557C21.4337 25.1281 22.0229 23.7786 22.0674 22.3557C22.0818 21.8928 22.039 21.4306 21.9402 20.982C21.6671 19.7428 22.2552 18.4227 23.4032 17.6971C26.2438 15.9016 27.9191 12.8653 27.8844 9.57559C27.8577 7.03775 26.8288 4.66119 24.9875 2.88355ZM22.5334 16.3212C21.6935 16.8521 21.0412 17.6007 20.647 18.4857C20.2429 19.3931 20.1403 20.3773 20.3508 21.3323C20.4205 21.6493 20.4508 21.9767 20.4404 22.3048C20.4091 23.313 19.9884 24.2723 19.2562 25.0063C18.518 25.7463 17.5315 26.1892 16.4786 26.2532C15.2484 26.328 14.0483 25.8866 13.1842 25.0416C12.3494 24.2253 12.0263 22.9999 12.2238 21.3997C12.5881 18.4475 12.6728 14.8579 10.5394 10.6195C10.1562 9.8583 9.7777 8.69142 10.1496 7.45567C10.6375 5.83421 11.6781 4.37552 13.0793 3.34873C14.5321 2.284 16.2673 1.73002 18.0967 1.73914C20.2791 1.75312 22.3249 2.5754 23.8571 4.05445C25.3826 5.52713 26.2349 7.49403 26.257 9.59275C26.2856 12.3141 24.8937 14.8295 22.5334 16.3212Z" fill="white"/>
<path d="M6.29368 11.3865C5.97113 11.0739 5.45572 11.0819 5.14313 11.4047C4.83032 11.7275 4.83838 12.2427 5.16114 12.5555C6.41597 13.7713 7.10685 15.3887 7.10685 17.1098C7.10685 18.8311 6.41597 20.4485 5.16114 21.6643C4.83838 21.9771 4.83032 22.4923 5.14313 22.8151C5.30271 22.9798 5.51506 23.0626 5.72763 23.0626C5.9315 23.0626 6.1358 22.9863 6.2939 22.8331C7.86767 21.3081 8.73446 19.2755 8.73446 17.1098C8.73446 14.9441 7.86767 12.9115 6.29368 11.3865Z" fill="white"/>
<path d="M0.351229 15.3923C0.0324894 15.7089 0.030794 16.2243 0.347626 16.5431C0.605754 16.8029 0.605754 17.2257 0.347626 17.4855C0.030794 17.8043 0.0324894 18.3194 0.351229 18.6363C0.509963 18.7942 0.71744 18.8728 0.924917 18.8728C1.13409 18.8728 1.34326 18.7927 1.50221 18.6327C2.38891 17.7403 2.38891 16.2883 1.50221 15.3959C1.18538 15.0772 0.67018 15.0755 0.351229 15.3923Z" fill="white"/>
<path d="M3.91548 13.6908C3.5925 13.378 3.0773 13.3862 2.76471 13.709C2.45191 14.0317 2.45996 14.5469 2.78272 14.8597C3.40452 15.462 3.74678 16.261 3.74678 17.1094C3.74678 17.9579 3.40452 18.7569 2.78272 19.3592C2.45996 19.672 2.45191 20.1872 2.76471 20.51C2.92429 20.6746 3.13643 20.7575 3.34921 20.7575C3.55308 20.7575 3.75738 20.6812 3.91548 20.5282C4.85623 19.6165 5.37439 18.4023 5.37439 17.1094C5.37439 15.8166 4.85623 14.6025 3.91548 13.6908Z" fill="white"/>
</svg>
