<svg width="28" height="28" viewBox="0 0 28 28" fill="none" xmlns="http://www.w3.org/2000/svg">
<path d="M27.7035 13.4819C25.1789 10.406 19.8337 6.81641 14 6.81641C8.14537 6.81641 2.8 10.4304 0.29646 13.4819C0.049292 13.7832 0.049292 14.2171 0.29646 14.5183C2.88099 17.6686 8.23867 21.1839 14 21.1839C19.9661 21.1839 25.2885 17.4607 27.7035 14.5184C27.9507 14.2171 27.9507 13.7832 27.7035 13.4819ZM19.5497 14.0001C19.5497 17.0603 17.0601 19.5499 13.9999 19.5499C10.9397 19.5499 8.45016 17.0601 8.45016 14.0001C8.45016 10.94 10.9398 8.45034 13.9999 8.45034C17.0604 8.45039 19.5497 10.9403 19.5497 14.0001ZM2.0317 14.0003C2.95125 13.0446 5.16846 10.982 8.28094 9.65824C6.32767 12.2248 6.32691 15.7733 8.28001 18.3408C5.91351 17.3378 3.71514 15.7532 2.0317 14.0003ZM19.7191 18.342C21.6723 15.7754 21.673 12.2269 19.72 9.65943C22.0864 10.6624 24.2848 12.2471 25.9683 13.9998C25.0487 14.9557 22.8315 17.0182 19.7191 18.342Z" fill="white"/>
<path d="M11.2222 14.0004C11.2222 15.5321 12.4682 16.7782 13.9999 16.7782C15.5316 16.7782 16.7777 15.5321 16.7777 14.0004C16.7777 12.4687 15.5316 11.2227 13.9999 11.2227C12.4682 11.2227 11.2222 12.4687 11.2222 14.0004ZM15.1437 14.0004C15.1437 14.6312 14.6306 15.1442 13.9999 15.1442C13.3692 15.1442 12.8562 14.6312 12.8562 14.0004C12.8562 13.3697 13.3692 12.8566 13.9999 12.8566C14.6306 12.8566 15.1437 13.3697 15.1437 14.0004Z" fill="white"/>
<path d="M14.0001 3.65163C14.4513 3.65163 14.8171 3.28584 14.8171 2.83464V0.928322C14.8171 0.477123 14.4513 0.111328 14.0001 0.111328C13.5489 0.111328 13.1831 0.477123 13.1831 0.928322V2.83464C13.1831 3.28584 13.5489 3.65163 14.0001 3.65163Z" fill="white"/>
<path d="M18.8749 4.7442C19.2666 4.96762 19.7657 4.8314 19.9893 4.43925L21.0766 2.53293C21.3001 2.14099 21.1637 1.64208 20.7717 1.41849C20.3796 1.19497 19.8808 1.3314 19.6572 1.72345L18.57 3.62977C18.3464 4.02165 18.4829 4.52062 18.8749 4.7442Z" fill="white"/>
<path d="M8.01087 4.43924C8.2344 4.83118 8.73331 4.96767 9.1253 4.74414C9.51724 4.52061 9.65373 4.02164 9.4302 3.6297L8.34295 1.72339C8.11942 1.33145 7.6204 1.19496 7.22851 1.41849C6.83657 1.64201 6.70008 2.14098 6.92361 2.53292L8.01087 4.43924Z" fill="white"/>
<path d="M14.0001 24.3486C13.5489 24.3486 13.1831 24.7144 13.1831 25.1656V27.0719C13.1831 27.5231 13.5489 27.8889 14.0001 27.8889C14.4513 27.8889 14.8171 27.5231 14.8171 27.0719V25.1656C14.8171 24.7144 14.4513 24.3486 14.0001 24.3486Z" fill="white"/>
<path d="M9.1253 23.2564C8.73336 23.0329 8.23445 23.1693 8.01087 23.5613L6.92361 25.4676C6.70008 25.8595 6.83657 26.3585 7.22851 26.582C7.62051 26.8055 8.11942 26.669 8.34295 26.2771L9.4302 24.3708C9.65379 23.9788 9.51724 23.4799 9.1253 23.2564Z" fill="white"/>
<path d="M19.9893 23.5613C19.7658 23.1693 19.2667 23.0329 18.8749 23.2563C18.4829 23.4799 18.3464 23.9788 18.57 24.3708L19.6572 26.2771C19.8807 26.669 20.3796 26.8056 20.7717 26.582C21.1636 26.3585 21.3001 25.8595 21.0766 25.4676L19.9893 23.5613Z" fill="white"/>
</svg>
