<svg width="26" height="29" viewBox="0 0 26 29" fill="none" xmlns="http://www.w3.org/2000/svg">
<path d="M6.79169 10.4566V10.4621C6.79169 10.4677 6.79169 10.4733 6.78556 10.4733V10.4956C6.79169 10.5073 6.79169 10.5179 6.79169 10.5296C6.79726 10.5351 6.79726 10.5407 6.79726 10.5518C7.12044 11.2367 8.50233 11.2818 9.10412 11.3431C9.92879 11.4099 10.5807 12.073 10.6309 12.9033C10.6532 13.388 11.0042 13.5831 11.4444 13.6945C12.6145 13.9848 13.8571 13.884 14.9548 14.4473C15.4563 14.7036 15.9244 15.0157 16.3596 15.3717C16.7491 15.6999 17.0778 16.1624 17.5514 16.3741C18.482 16.7803 19.5853 16.1841 19.7468 15.1812C19.8026 14.8641 20.1141 14.6518 20.4266 14.7248C21.4909 14.975 22.5218 14.0946 22.4438 13.0086C22.4321 12.847 22.4883 12.691 22.5992 12.574C23.6356 11.5208 23.4573 9.72661 22.232 8.89637C21.9417 8.69577 21.9088 8.26616 22.1651 8.02656C22.6276 7.59194 22.3992 6.78955 21.7695 6.66752C21.4569 6.60623 21.2508 6.29363 21.3349 5.98215C21.5132 5.29734 20.8278 4.66713 20.1592 4.91231C19.8973 5.00703 19.6081 4.89559 19.4744 4.65042C18.9172 3.60286 17.6294 3.18495 16.5657 3.70873C16.315 3.83689 16.0085 3.75331 15.8525 3.51928C15.4123 2.84505 14.4032 2.82834 13.9357 3.48027C13.7462 3.73659 13.3729 3.78674 13.1277 3.58113C12.5371 3.09636 11.6238 3.29639 11.2834 3.98232C11.1608 4.23864 10.8655 4.35565 10.598 4.26093C9.87975 4.00461 9.03224 4.40023 8.80935 5.13575C8.72633 5.38594 8.4806 5.54753 8.21871 5.51967C7.76736 5.46952 7.33831 5.82056 7.31045 6.27747C7.29374 6.4998 7.14329 6.69538 6.93155 6.76782C5.68897 7.17403 5.49952 8.90751 6.62452 9.57617C6.87527 9.72661 6.97 10.0442 6.84239 10.3061C6.82011 10.3507 6.80339 10.3953 6.79225 10.4454V10.4566H6.79169ZM2.83549 20.7427L3.37041 20.4139C3.7716 20.1632 3.67688 19.5274 3.21996 19.4048L2.36186 19.1708L2.7129 18.218C2.8132 17.9338 2.67891 17.6217 2.40644 17.5103L1.19729 17.0088C0.874104 16.8751 0.75709 16.4627 0.952114 16.1786L3.40384 12.6068C3.59887 12.3171 3.47628 11.9048 3.1531 11.7771C3.00822 11.7159 2.91907 11.5766 2.92464 11.42C3.18653 7.35233 5.4098 3.06794 9.34929 1.49605C11.3998 0.677502 13.651 0.56606 15.8185 0.866954C18.0418 1.16785 20.3046 1.90894 22.0648 3.3354C23.7755 4.72286 24.8125 6.77896 25.1858 8.92423C25.587 11.1976 25.1022 13.4376 24.0491 15.4659C23.659 16.2126 23.1743 16.8974 22.656 17.5554C20.4879 20.2412 19.9474 23.8909 21.2513 27.0837L21.8531 28.5715H9.288L9.00382 26.8943C8.7475 25.4121 7.36562 24.398 5.87229 24.6042C5.02477 24.7045 3.57658 25.1446 3.0528 24.1807C2.64604 23.434 2.89678 22.5425 3.34255 21.8794C3.48743 21.6565 3.45956 21.3556 3.27011 21.1712L2.83549 20.7427Z" fill="white"/>
</svg>
